<?xml version="1.0" encoding="UTF-8"?>
<svg id="Layer_2" data-name="Layer 2" xmlns="http://www.w3.org/2000/svg" viewBox="0 0 342.17 337.35">
  <defs>
    <style>
      .cls-1 {
        fill: #252376;
      }

      .cls-2 {
        fill: none;
        stroke: #252376;
        stroke-miterlimit: 10;
        stroke-width: 3px;
      }

      .cls-3 {
        fill: #02903f;
      }
    </style>
  </defs>
  <g id="Layer_1-2" data-name="Layer 1">
    <ellipse class="cls-2" cx="173.94" cy="169.36" rx="141.18" ry="138.97"/>
    <g>
      <path class="cls-3" d="M148.09,51.26c9.96.13,12.77-.38,25.02.26,49.32,2.57,98.81,37.79,113.36,78.64l52.34-.26C332.43,55.6,249.93,0,173.14,0c-6.92,0-19.37-.11-26.08.71l1.02,50.55Z"/>
      <path class="cls-1" d="M293.11,163.99c.04,1.22.06,2.45.06,3.68,0,52.18-33.38,96.7-79.91,113.35v51.11c73.92-18.18,128.91-85.01,128.91-164.46,0-1.23-.02-2.45-.05-3.68h-49.01Z"/>
    </g>
    <path class="cls-3" d="M175.79,289.35l.13,48C75.45,335.82,3.79,260.52,3.79,169.35c0-26.65,6.2-51.88,17.23-74.32C9.16,84.09.19,75.4,0,73.98c66.64-7.32,77.7-9.36,81.11-10.38l-1.45,83.89s-8.6-7.53-20.15-17.78c-4.35,12.41-6.72,25.76-6.72,39.64,0,64.15,59.7,116.56,123,120Z"/>
  </g>
</svg>