<?xml version="1.0" encoding="UTF-8"?>
<svg id="Layer_2" data-name="Layer 2" xmlns="http://www.w3.org/2000/svg" viewBox="0 0 316.57 84.29">
  <defs>
    <style>
      .cls-1 {
        fill: #2b297a;
      }

      .cls-2 {
        fill: #252376;
      }

      .cls-3 {
        stroke: #252376;
        stroke-width: 3px;
      }

      .cls-3, .cls-4 {
        fill: none;
        stroke-miterlimit: 10;
      }

      .cls-5 {
        fill: #02903f;
      }

      .cls-4 {
        stroke: #2b297a;
        stroke-width: 5px;
      }

      .cls-6 {
        fill: #008428;
      }
    </style>
  </defs>
  <g id="Layer_1-2" data-name="Layer 1">
    <g>
      <ellipse class="cls-3" cx="43.46" cy="42.31" rx="35.27" ry="34.72"/>
      <g>
        <path class="cls-5" d="M37,12.81c2.49.03,3.19-.1,6.25.06,12.32.64,24.69,9.44,28.32,19.65l13.08-.06C83.06,13.89,62.45,0,43.26,0c-1.73,0-4.84-.03-6.52.18l.26,12.63Z"/>
        <path class="cls-2" d="M73.23,40.97c0,.31.02.61.02.92,0,13.04-8.34,24.16-19.97,28.32v12.77c18.47-4.54,32.21-21.24,32.21-41.09,0-.31,0-.61-.01-.92h-12.25Z"/>
      </g>
      <path class="cls-5" d="M43.92,72.29l.03,11.99C18.85,83.9.95,65.09.95,42.31c0-6.66,1.55-12.96,4.3-18.57C2.29,21.01.05,18.84,0,18.48c16.65-1.83,19.41-2.34,20.26-2.59l-.36,20.96s-2.15-1.88-5.03-4.44c-1.09,3.1-1.68,6.44-1.68,9.9,0,16.03,14.92,29.12,30.73,29.98Z"/>
    </g>
    <g>
      <path class="cls-6" d="M133.72,28.87c0-1.68,1.4-2.88,3.11-2.88s2.86,1.1,2.9,2.68c-.04,1.64-1.33,2.86-3.2,2.86-1.67,0-2.81-1.17-2.81-2.67Z"/>
      <path class="cls-1" d="M103.94,58.44l-5.38-32.01,4.78.46,3.73,19.64c.28,3.71,1.04,5.25,1.21,7.37h.15c.98-1.96,2.14-3.95,4.39-7.68l12.29-19.33,5.26-.46-20.19,32.68c-.38.61-1.04.98-1.76.98h-2.53c-.97,0-1.79-.7-1.95-1.65Z"/>
      <path class="cls-1" d="M127.83,59.98l5.64-26.45h4.75l-5.64,26.45h-4.75Z"/>
      <path class="cls-1" d="M141.45,60.16l3.21-16.4c.65-3.34,2.45-14.24,2.79-16.8h4.2c-.43,2.32-1.47,4.58-2.22,5.87l.51-.67c1.77-3.66,5.95-5.85,9.81-5.85.47,0,1.1.04,1.49.11l-.84,4.19c-.43,0-1.06.1-1.56.18-7.54,1.24-9.3,11.96-10.58,18.68l-2.05,10.68h-4.75Z"/>
      <path class="cls-1" d="M278.53,26.33l1.3,19.08c.31,4.37.27,6.5.26,9.3h.12c.69-2.11,1.82-5.12,3.35-8.59l9.09-19.78h4.59l2.23,19.35c.37,3.76.61,6.91.66,9.02h.12c.8-2.8,1.61-5.41,2.8-8.58l8.25-19.8h5.28l-14.82,33.89h-4.89l-2.29-18.43c-.35-3.31-.57-6.21-.61-9.2h-.12c-1.32,3.32-2.17,5.79-3.61,8.97l-8.76,18.67h-4.89l-3.09-33.89h5.04Z"/>
      <path class="cls-1" d="M184.96,50.44c-2.76,3.25-6.76,5.37-10.85,5.34-6.59-.05-10.92-5.68-9.66-12.56,1.27-6.87,7.66-12.42,14.25-12.37,4.5.04,7.95,2.68,9.28,6.54l4.75.04c-1.15-6.42-6.26-11.03-13.2-11.09-8.98-.07-17.68,7.49-19.4,16.85-1.72,9.36,4.18,17.03,13.15,17.1,6.56.05,12.98-3.98,16.63-9.81l-4.95-.04Z"/>
      <path class="cls-4" d="M265.42,43.5c-1.48,8.42-9.47,15.24-17.84,15.24s-13.95-6.82-12.47-15.24,9.47-15.24,17.84-15.24,13.95,6.82,12.47,15.24Z"/>
      <path class="cls-1" d="M228.9,35.48c0,.27-.04.68-.13,1.24-.08.55-.18,1.14-.29,1.77s-.23,1.25-.36,1.86c-.13.62-.26,1.13-.37,1.55l-4.24,17.56h-5.92l4.46-18.79c.1-.33.19-.72.29-1.16.09-.44.18-.88.25-1.31.07-.44.13-.84.18-1.21.05-.36.07-.65.07-.86,0-1.63-.42-2.89-1.27-3.79-.84-.9-2.15-1.35-3.9-1.35-1.52,0-3.04.39-4.56,1.17-1.52.78-2.94,1.8-4.24,3.04-1.31,1.24-2.44,2.63-3.41,4.16-.96,1.53-1.63,3.05-2.01,4.55l-3.82,15.53h-5.92l11.55-47.46h5.85l-5.56,22.92h.14c.88-1.19,1.84-2.29,2.89-3.3,1.05-1.01,2.16-1.89,3.33-2.63,1.18-.74,2.41-1.32,3.71-1.74,1.3-.42,2.63-.63,4.01-.63,3.04,0,5.35.79,6.92,2.36,1.57,1.58,2.35,3.74,2.35,6.5Z"/>
    </g>
  </g>
</svg>